<svg xmlns="http://www.w3.org/2000/svg" xmlns:xlink="http://www.w3.org/1999/xlink" width="500" zoomAndPan="magnify" viewBox="0 0 375 374.999991" height="500" preserveAspectRatio="xMidYMid meet" version="1.2"><defs><clipPath id="6641b8339a"><path d="M 243 165 L 304.617188 165 L 304.617188 222 L 243 222 Z M 243 165 "/></clipPath><clipPath id="525de8e746"><path d="M 93 138 L 286 138 L 286 289.863281 L 93 289.863281 Z M 93 138 "/></clipPath></defs><g id="61051afc39"><path style=" stroke:none;fill-rule:evenodd;fill:#b3e0c9;fill-opacity:1;" d="M 221.765625 29.773438 L 222.171875 29.800781 C 223.496094 29.023438 224.941406 29.195312 226.527344 28.847656 C 231.605469 27.78125 235.414062 25.386719 238.128906 20.421875 C 239.195312 18.488281 240.03125 12.082031 237.695312 9.71875 C 235.644531 7.609375 231.347656 10.726562 230.046875 11.707031 C 226.179688 14.710938 225.085938 17.796875 222.921875 22.53125 C 222.371094 23.710938 222.171875 25.675781 221.792969 27.320312 C 218.996094 30.8125 216.570312 34.996094 214.089844 38.835938 C 213.28125 40.046875 212.53125 41.316406 211.78125 42.558594 C 214.234375 36.554688 215.128906 30.609375 213.800781 23.597656 C 213.28125 20.796875 209.789062 14.21875 206.761719 14.535156 C 204.105469 14.824219 203.238281 22.039062 203.007812 24.289062 C 202.375 30.957031 203.613281 34.824219 205.171875 41.285156 C 205.722656 43.566406 207.683594 46.453125 208.230469 48.875 C 204.164062 56.582031 200.785156 64.777344 197.929688 73.289062 C 197.988281 72.945312 198.046875 72.566406 198.074219 72.222656 C 198.796875 65.265625 198.015625 59.09375 194.699219 52.714844 C 193.429688 50.261719 188.292969 45.355469 185.578125 46.828125 C 183.15625 48.15625 184.394531 55.371094 184.800781 57.5625 C 186.097656 64.171875 188.320312 67.375 191.609375 72.914062 C 192.675781 74.734375 194.984375 76.550781 196.285156 78.484375 C 193.515625 87.777344 191.351562 97.960938 189.734375 108.554688 C 189.707031 103.011719 188.523438 97.90625 185.609375 92.738281 C 184.25 90.34375 178.96875 85.667969 176.285156 87.285156 C 173.949219 88.699219 175.390625 95.886719 175.910156 98.050781 C 177.382812 104.601562 179.75 107.714844 183.210938 113.113281 C 184.425781 115.015625 187.078125 116.863281 188.347656 118.882812 C 187.367188 127.28125 186.703125 135.851562 186.300781 144.367188 C 186.128906 143.125 186.128906 141.855469 185.953125 140.46875 C 184.972656 133.515625 182.75 127.800781 178.074219 122.722656 C 176.285156 120.761719 170.226562 117.703125 167.976562 120.039062 C 165.984375 122.117188 168.871094 128.695312 169.824219 130.6875 C 172.59375 136.660156 175.507812 139.027344 179.953125 143.296875 C 181.539062 144.828125 184.539062 145.867188 186.183594 147.539062 C 185.550781 163.757812 185.953125 179.746094 187.136719 194.058594 C 187.164062 194.492188 187.511719 194.835938 187.886719 194.808594 C 188.261719 194.78125 188.523438 194.402344 188.492188 193.941406 C 187.222656 178.589844 186.878906 161.277344 187.683594 143.847656 C 189.097656 142.894531 190.570312 142.75 192.1875 142.085938 C 197.785156 139.804688 202.085938 136.3125 205.316406 130.082031 C 206.558594 127.65625 207.769531 120.183594 205.347656 117.988281 C 203.183594 116.027344 198.332031 120.441406 196.863281 121.855469 C 192.476562 126.070312 191.148438 129.820312 188.523438 135.652344 C 188.347656 136.054688 188.203125 136.574219 188.058594 137.121094 C 188.492188 130.660156 189.070312 124.222656 189.851562 117.875 L 189.9375 117.84375 C 191.464844 116.691406 193.054688 116.574219 194.785156 115.882812 C 200.410156 113.660156 204.710938 110.167969 207.972656 103.964844 C 209.242188 101.570312 210.484375 94.097656 208.058594 91.875 C 205.921875 89.910156 201.015625 94.296875 199.546875 95.683594 C 195.160156 99.867188 193.804688 103.589844 191.175781 109.417969 C 191.0625 109.648438 190.976562 109.882812 190.886719 110.140625 C 192.015625 102.523438 193.429688 95.136719 195.128906 88.09375 L 195.304688 88.179688 C 196.976562 87.660156 198.507812 88.179688 200.296875 88.210938 C 206.011719 88.324219 210.859375 86.765625 215.332031 82.320312 C 217.035156 80.589844 219.949219 74.214844 218.214844 71.242188 C 216.6875 68.585938 211.117188 70.75 209.414062 71.472656 C 204.335938 73.636719 202.199219 76.523438 198.421875 80.878906 C 197.496094 81.917969 196.6875 83.734375 195.824219 85.292969 C 196.777344 81.628906 197.84375 78.023438 198.96875 74.589844 C 201.191406 67.949219 203.703125 61.488281 206.617188 55.339844 L 206.90625 55.542969 C 208.460938 55.511719 209.761719 56.378906 211.347656 56.839844 C 216.484375 58.398438 220.957031 58.140625 225.402344 55.023438 C 227.105469 53.8125 230.367188 48.472656 229.066406 45.183594 C 227.96875 42.269531 222.746094 42.933594 221.160156 43.191406 C 216.425781 43.941406 214.234375 46.191406 210.394531 49.367188 C 209.558594 50.058594 208.78125 51.328125 207.972656 52.484375 C 210.164062 48.097656 212.558594 43.882812 215.1875 39.816406 C 217.320312 36.527344 219.429688 32.917969 221.765625 29.773438 "/><path style=" stroke:none;fill-rule:nonzero;fill:#b3e0c9;fill-opacity:1;" d="M 132.972656 83.910156 C 133.664062 88.441406 134.847656 92.941406 137.039062 96.953125 C 132.828125 92.480469 128.644531 88.035156 124.660156 83.5625 C 124.691406 83.476562 124.660156 83.359375 124.632812 83.273438 C 124.574219 83.074219 124.402344 82.871094 124.171875 82.699219 C 124.027344 82.582031 123.851562 82.496094 123.765625 82.351562 C 123.015625 81.023438 122.324219 79.292969 121.890625 77.820312 C 120.765625 74.011719 120.359375 69.972656 120.214844 65.988281 C 120.648438 65.730469 122.699219 64.371094 124.34375 60.535156 C 125.554688 57.679688 128.355469 49.078125 129.59375 42.324219 C 130.144531 39.351562 130.375 36.757812 130.085938 35.054688 C 129.828125 33.523438 130.347656 31.332031 131.210938 29.050781 C 133.261719 23.480469 137.183594 17.304688 137.183594 17.304688 C 137.359375 17.019531 137.300781 16.671875 137.011719 16.5 C 136.78125 16.324219 136.40625 16.382812 136.234375 16.644531 C 136.234375 16.644531 124.429688 33.523438 119.292969 43.308594 C 114.820312 51.761719 117.964844 62.007812 119.003906 64.921875 C 119.148438 69.363281 119.523438 73.925781 120.792969 78.167969 C 120.96875 78.773438 121.199219 79.4375 121.457031 80.101562 C 120.621094 79.292969 119.667969 78.457031 118.6875 77.589844 C 116.582031 74.386719 110.695312 65.960938 102.757812 59.699219 C 92.800781 51.847656 80.796875 43.625 80.796875 43.625 C 80.59375 43.480469 80.335938 43.480469 80.132812 43.625 C 79.960938 43.769531 79.84375 44 79.902344 44.230469 C 79.902344 44.230469 81.664062 51.386719 82.617188 54.53125 C 83.136719 56.121094 85.875 60.074219 89.253906 63.941406 C 92.65625 67.808594 96.699219 71.585938 99.699219 72.828125 C 104.316406 74.789062 113.378906 77.90625 117.128906 79.207031 C 118.945312 80.734375 120.5625 82.234375 121.746094 83.59375 C 130.058594 93.113281 139.492188 102.4375 148.238281 112.277344 C 144.628906 109.851562 141.023438 107.023438 137.070312 105.320312 C 136.058594 104.484375 130.203125 99.839844 123.476562 97.472656 C 118.339844 95.652344 108.328125 90.921875 101.546875 88.09375 C 98.542969 86.851562 96.179688 85.988281 95.054688 85.871094 C 91.386719 85.496094 86.25 85.351562 86.25 85.351562 C 85.992188 85.324219 85.730469 85.523438 85.675781 85.8125 C 85.617188 86.101562 85.789062 86.363281 86.050781 86.449219 C 86.050781 86.449219 87.78125 87.054688 89.484375 88.121094 C 90.582031 88.816406 91.648438 89.679688 92.226562 90.75 C 93.003906 92.25 95.746094 95.453125 99.554688 98.308594 C 103.394531 101.167969 108.296875 103.675781 113.433594 103.820312 C 123.390625 104.082031 136.753906 106.445312 136.753906 106.445312 C 136.753906 106.445312 136.78125 106.445312 136.808594 106.445312 C 141.050781 108.324219 144.859375 111.496094 148.699219 113.980469 C 149.21875 114.324219 149.851562 114.613281 150.546875 114.902344 C 156.058594 121.28125 161.253906 127.886719 165.667969 134.929688 C 164.511719 134.148438 163.328125 133.457031 162.234375 132.792969 C 158.886719 130.6875 155.597656 128.667969 152.019531 126.964844 C 151.585938 126.761719 151.152344 126.558594 150.71875 126.386719 C 150.71875 126.359375 150.746094 126.328125 150.746094 126.300781 C 150.777344 126.042969 150.691406 125.808594 150.488281 125.695312 C 150.488281 125.695312 143.476562 121.191406 137.359375 117.644531 C 131.210938 114.035156 108.847656 108.699219 108.847656 108.699219 C 108.558594 108.640625 108.269531 108.785156 108.183594 109.074219 C 108.066406 109.363281 108.210938 109.679688 108.472656 109.792969 C 108.472656 109.792969 113.148438 111.957031 115.742188 115.421875 C 117.359375 117.613281 121.6875 121.394531 126.679688 124.109375 C 130.027344 125.925781 133.691406 127.253906 137.011719 127.28125 C 142.609375 127.398438 146.738281 127.109375 148.8125 126.90625 C 149.738281 127.222656 150.632812 127.597656 151.527344 128.003906 C 155.046875 129.707031 158.335938 131.695312 161.628906 133.773438 C 163.097656 134.699219 164.800781 135.621094 166.273438 136.777344 C 166.648438 137.09375 167.023438 137.382812 167.371094 137.699219 C 170.140625 142.433594 172.5625 147.367188 174.46875 152.5625 C 174.671875 153.136719 175.304688 153.425781 175.882812 153.226562 C 176.460938 153.023438 176.75 152.359375 176.546875 151.8125 C 171.84375 139.027344 164.167969 127.800781 155.394531 117.269531 C 155.394531 117.238281 155.394531 117.238281 155.394531 117.238281 C 155.078125 116.402344 154.46875 115.738281 153.691406 115.191406 C 151.730469 112.910156 149.710938 110.632812 147.6875 108.410156 C 147.574219 107.976562 147.371094 107.371094 147.3125 107.226562 C 146.96875 106.273438 147.054688 105.265625 146.9375 104.253906 C 146.648438 101.453125 147.34375 98.539062 147.832031 95.796875 C 148.8125 95.480469 149.738281 94.585938 150.515625 93.316406 C 152.796875 89.59375 154.152344 82.523438 153.863281 79.40625 C 153.460938 75.222656 156.316406 69.132812 156.316406 69.132812 C 156.460938 68.902344 156.375 68.585938 156.144531 68.441406 C 155.914062 68.269531 155.597656 68.296875 155.394531 68.46875 C 155.394531 68.46875 150.429688 73.289062 146.042969 81.140625 C 141.457031 89.246094 146.246094 95.652344 146.246094 95.652344 C 146.332031 95.769531 146.476562 95.855469 146.621094 95.886719 C 146.128906 98.65625 145.496094 101.570312 145.8125 104.371094 C 145.871094 105.089844 145.871094 105.8125 145.988281 106.535156 C 144.457031 104.859375 142.898438 103.1875 141.339844 101.511719 C 140.5625 99.839844 139.175781 98.339844 138.253906 96.722656 C 135.914062 92.625 134.761719 88.007812 134.039062 83.359375 L 134.789062 78.597656 C 135.367188 77.242188 144.6875 54.964844 146.96875 47.894531 C 147.917969 44.867188 149.59375 42.179688 150.921875 40.160156 C 151.84375 38.71875 152.566406 37.59375 152.855469 36.84375 C 153.027344 36.324219 153 35.949219 152.855469 35.660156 C 152.738281 35.457031 152.535156 35.285156 152.21875 35.199219 C 151.929688 35.140625 151.527344 35.140625 151.007812 35.226562 C 150.460938 35.34375 149.738281 35.71875 148.902344 36.351562 C 147.777344 37.21875 146.417969 38.546875 144.917969 40.21875 C 139.203125 46.65625 131.703125 57.851562 130.058594 64.085938 C 127.632812 73.085938 132.914062 83.824219 132.914062 83.824219 C 132.941406 83.851562 132.941406 83.878906 132.972656 83.910156 "/><path style=" stroke:none;fill-rule:nonzero;fill:#b3e0c9;fill-opacity:1;" d="M 247.246094 90.054688 C 247.046875 94.617188 246.410156 99.203125 244.648438 103.417969 C 248.34375 98.511719 252.007812 93.664062 255.441406 88.785156 C 255.414062 88.699219 255.414062 88.613281 255.441406 88.527344 C 255.472656 88.324219 255.644531 88.09375 255.816406 87.890625 C 255.960938 87.777344 256.136719 87.632812 256.191406 87.488281 C 256.796875 86.101562 257.261719 84.3125 257.550781 82.8125 C 258.242188 78.917969 258.210938 74.875 257.925781 70.894531 C 257.460938 70.691406 255.269531 69.566406 253.21875 65.960938 C 251.691406 63.277344 247.996094 55.082031 246.007812 48.53125 C 245.140625 45.644531 244.621094 43.074219 244.707031 41.375 C 244.824219 39.816406 244.042969 37.738281 242.945312 35.542969 C 240.320312 30.261719 235.734375 24.578125 235.734375 24.578125 C 235.53125 24.320312 235.558594 23.972656 235.789062 23.769531 C 236.019531 23.570312 236.398438 23.597656 236.597656 23.828125 C 236.597656 23.828125 250.132812 39.238281 256.335938 48.328125 C 261.675781 56.207031 259.714844 66.710938 258.992188 69.742188 C 259.339844 74.125 259.453125 78.6875 258.675781 83.015625 C 258.558594 83.648438 258.414062 84.3125 258.242188 85.007812 C 258.992188 84.109375 259.800781 83.1875 260.695312 82.234375 C 262.425781 78.832031 267.304688 69.828125 274.488281 62.757812 C 283.492188 53.898438 294.457031 44.402344 294.457031 44.402344 C 294.628906 44.257812 294.890625 44.230469 295.121094 44.347656 C 295.324219 44.460938 295.4375 44.691406 295.410156 44.921875 C 295.410156 44.921875 294.457031 52.195312 293.851562 55.398438 C 293.535156 57.042969 291.253906 61.285156 288.3125 65.46875 C 285.398438 69.683594 281.816406 73.839844 278.960938 75.425781 C 274.605469 77.878906 265.976562 81.976562 262.398438 83.648438 C 260.78125 85.351562 259.367188 87.027344 258.355469 88.496094 C 251.144531 98.859375 242.859375 109.128906 235.269531 119.835938 C 238.5625 117.039062 241.820312 113.835938 245.574219 111.699219 C 246.46875 110.777344 251.75 105.523438 258.15625 102.4375 C 263.03125 100.097656 272.410156 94.269531 278.847656 90.71875 C 281.644531 89.191406 283.925781 88.066406 285.019531 87.832031 C 288.601562 87.054688 293.648438 86.332031 293.648438 86.332031 C 293.9375 86.277344 294.199219 86.449219 294.285156 86.738281 C 294.371094 86.996094 294.226562 87.285156 293.996094 87.402344 C 293.996094 87.402344 292.324219 88.179688 290.765625 89.449219 C 289.78125 90.230469 288.800781 91.238281 288.339844 92.335938 C 287.734375 93.894531 285.398438 97.386719 281.90625 100.648438 C 278.441406 103.878906 273.855469 106.910156 268.804688 107.628906 C 258.964844 108.988281 246.007812 112.796875 246.007812 112.796875 C 245.976562 112.796875 245.976562 112.796875 245.949219 112.824219 C 241.964844 115.132812 238.53125 118.683594 234.984375 121.566406 C 234.519531 121.972656 233.914062 122.320312 233.28125 122.695312 C 228.519531 129.589844 224.101562 136.71875 220.496094 144.191406 C 221.5625 143.296875 222.660156 142.460938 223.671875 141.683594 C 226.730469 139.257812 229.789062 136.863281 233.164062 134.785156 C 233.539062 134.523438 233.972656 134.292969 234.375 134.09375 C 234.375 134.035156 234.347656 134.003906 234.347656 133.976562 C 234.261719 133.746094 234.347656 133.484375 234.519531 133.34375 C 234.519531 133.34375 240.957031 128.148438 246.613281 123.933594 C 252.296875 119.691406 273.882812 111.957031 273.882812 111.957031 C 274.140625 111.84375 274.460938 111.957031 274.574219 112.246094 C 274.71875 112.507812 274.605469 112.824219 274.34375 112.96875 C 274.34375 112.96875 269.988281 115.652344 267.792969 119.375 C 266.4375 121.710938 262.570312 125.925781 257.925781 129.15625 C 254.808594 131.320312 251.316406 133.054688 248.027344 133.457031 C 242.484375 134.179688 238.386719 134.351562 236.308594 134.382812 C 235.445312 134.8125 234.578125 135.246094 233.742188 135.765625 C 230.421875 137.816406 227.421875 140.179688 224.363281 142.605469 C 223.007812 143.671875 221.449219 144.796875 220.121094 146.097656 C 219.773438 146.414062 219.429688 146.761719 219.140625 147.105469 C 216.917969 152.128906 215.070312 157.265625 213.742188 162.601562 C 213.597656 163.210938 212.992188 163.585938 212.417969 163.410156 C 211.808594 163.265625 211.464844 162.691406 211.609375 162.085938 C 214.839844 148.925781 221.21875 136.949219 228.71875 125.550781 C 228.71875 125.550781 228.71875 125.550781 228.71875 125.523438 C 228.953125 124.65625 229.5 123.933594 230.191406 123.328125 C 231.894531 120.847656 233.625 118.363281 235.386719 115.941406 C 235.445312 115.507812 235.558594 114.875 235.617188 114.730469 C 235.847656 113.746094 235.644531 112.738281 235.644531 111.726562 C 235.644531 108.929688 234.636719 106.128906 233.855469 103.476562 C 232.847656 103.273438 231.835938 102.492188 230.914062 101.308594 C 228.230469 97.875 226.125 91.035156 226.066406 87.921875 C 226.007812 83.707031 222.488281 78.023438 222.488281 78.023438 C 222.34375 77.792969 222.402344 77.472656 222.601562 77.300781 C 222.804688 77.097656 223.121094 77.097656 223.351562 77.273438 C 223.351562 77.273438 228.777344 81.484375 234.03125 88.757812 C 239.425781 96.289062 235.386719 103.15625 235.386719 103.15625 C 235.328125 103.273438 235.183594 103.359375 235.070312 103.417969 L 235.039062 103.417969 C 235.847656 106.101562 236.800781 108.929688 236.800781 111.726562 C 236.800781 112.449219 236.886719 113.171875 236.859375 113.890625 C 238.214844 112.046875 239.570312 110.226562 240.898438 108.4375 C 241.503906 106.679688 242.714844 105.03125 243.4375 103.332031 C 245.285156 99.03125 245.949219 94.296875 246.121094 89.652344 L 244.878906 85.007812 C 244.160156 83.707031 232.472656 62.699219 229.441406 55.945312 C 228.144531 53.0625 226.179688 50.609375 224.652344 48.730469 C 223.613281 47.40625 222.71875 46.367188 222.402344 45.671875 C 222.140625 45.183594 222.140625 44.777344 222.257812 44.488281 C 222.34375 44.257812 222.515625 44.085938 222.832031 43.96875 C 223.09375 43.855469 223.46875 43.796875 224.046875 43.855469 C 224.59375 43.882812 225.316406 44.203125 226.210938 44.722656 C 227.421875 45.441406 228.921875 46.65625 230.597656 48.125 C 236.972656 53.867188 245.632812 64.140625 247.96875 70.117188 C 251.34375 78.742188 247.304688 89.96875 247.304688 89.96875 C 247.277344 90 247.277344 90.027344 247.246094 90.054688 "/><path style=" stroke:none;fill-rule:evenodd;fill:#f4d0b8;fill-opacity:1;" d="M 92.976562 57.304688 C 92.976562 48.703125 96.207031 41.71875 100.21875 41.71875 C 104.199219 41.71875 107.433594 48.703125 107.433594 57.304688 C 115.945312 53.003906 124.488281 51.964844 126.480469 54.996094 C 128.46875 58.023438 123.1875 63.96875 114.675781 68.269531 C 123.1875 72.566406 128.46875 78.511719 126.480469 81.542969 C 124.488281 84.574219 115.945312 83.535156 107.433594 79.234375 C 107.433594 87.832031 104.199219 94.816406 100.21875 94.816406 C 96.207031 94.816406 92.976562 87.832031 92.976562 79.234375 C 84.460938 83.535156 75.921875 84.574219 73.929688 81.542969 C 71.9375 78.511719 77.21875 72.566406 85.761719 68.269531 C 77.21875 63.96875 71.9375 58.023438 73.929688 54.996094 C 75.921875 51.964844 84.460938 53.003906 92.976562 57.304688 "/><path style=" stroke:none;fill-rule:evenodd;fill:#b3e0c9;fill-opacity:1;" d="M 100.21875 60.765625 C 103.539062 60.765625 106.25 63.566406 106.25 67.027344 C 106.25 70.519531 103.539062 73.320312 100.21875 73.320312 C 96.871094 73.320312 94.160156 70.519531 94.160156 67.027344 C 94.160156 63.566406 96.871094 60.765625 100.21875 60.765625 "/><path style=" stroke:none;fill-rule:evenodd;fill:#f4d0b8;fill-opacity:1;" d="M 204.769531 47.347656 C 204.769531 42.066406 206.730469 37.796875 209.183594 37.796875 C 211.609375 37.796875 213.597656 42.066406 213.597656 47.347656 C 218.792969 44.691406 224.015625 44.058594 225.257812 45.933594 C 226.46875 47.78125 223.238281 51.414062 218.015625 54.042969 C 223.238281 56.667969 226.46875 60.304688 225.257812 62.152344 C 224.015625 63.996094 218.792969 63.363281 213.597656 60.738281 C 213.597656 66.019531 211.609375 70.289062 209.183594 70.289062 C 206.730469 70.289062 204.769531 66.019531 204.769531 60.738281 C 199.546875 63.363281 194.324219 63.996094 193.109375 62.152344 C 191.871094 60.304688 195.128906 56.667969 200.324219 54.042969 C 195.128906 51.414062 191.871094 47.78125 193.109375 45.933594 C 194.324219 44.058594 199.546875 44.691406 204.769531 47.347656 "/><path style=" stroke:none;fill-rule:evenodd;fill:#b3e0c9;fill-opacity:1;" d="M 209.183594 49.453125 C 211.234375 49.453125 212.878906 51.15625 212.878906 53.292969 C 212.878906 55.398438 211.234375 57.128906 209.183594 57.128906 C 207.136719 57.128906 205.492188 55.398438 205.492188 53.292969 C 205.492188 51.15625 207.136719 49.453125 209.183594 49.453125 "/><path style=" stroke:none;fill-rule:evenodd;fill:#f4d0b8;fill-opacity:1;" d="M 257.75 78.222656 C 257.75 74.386719 259.195312 71.242188 260.984375 71.242188 C 262.773438 71.242188 264.242188 74.386719 264.242188 78.222656 C 268.054688 76.320312 271.863281 75.859375 272.757812 77.183594 C 273.652344 78.542969 271.285156 81.226562 267.476562 83.128906 C 271.285156 85.0625 273.652344 87.71875 272.757812 89.074219 C 271.863281 90.429688 268.054688 89.96875 264.242188 88.035156 C 264.242188 91.902344 262.773438 95.019531 260.984375 95.019531 C 259.195312 95.019531 257.75 91.902344 257.75 88.035156 C 253.941406 89.96875 250.132812 90.429688 249.238281 89.074219 C 248.34375 87.71875 250.710938 85.0625 254.519531 83.128906 C 250.710938 81.226562 248.34375 78.542969 249.238281 77.183594 C 250.132812 75.859375 253.941406 76.320312 257.75 78.222656 "/><path style=" stroke:none;fill-rule:evenodd;fill:#b3e0c9;fill-opacity:1;" d="M 260.984375 79.78125 C 262.484375 79.78125 263.695312 81.050781 263.695312 82.582031 C 263.695312 84.140625 262.484375 85.410156 260.984375 85.410156 C 259.511719 85.410156 258.300781 84.140625 258.300781 82.582031 C 258.300781 81.050781 259.511719 79.78125 260.984375 79.78125 "/><g clip-rule="nonzero" clip-path="url(#6641b8339a)"><path style=" stroke:none;fill-rule:evenodd;fill:#f4d0b8;fill-opacity:1;" d="M 273.824219 165.894531 C 290.820312 165.894531 304.617188 178.273438 304.617188 193.480469 C 304.617188 208.6875 290.820312 221.070312 273.824219 221.070312 C 256.855469 221.070312 243.0625 208.6875 243.0625 193.480469 C 243.0625 178.273438 256.855469 165.894531 273.824219 165.894531 "/></g><path style=" stroke:none;fill-rule:evenodd;fill:#f4d0b8;fill-opacity:1;" d="M 100.710938 165.894531 C 117.707031 165.894531 131.472656 178.273438 131.472656 193.480469 C 131.472656 208.6875 117.707031 221.070312 100.710938 221.070312 C 83.710938 221.070312 69.917969 208.6875 69.917969 193.480469 C 69.917969 178.273438 83.710938 165.894531 100.710938 165.894531 "/><g clip-rule="nonzero" clip-path="url(#525de8e746)"><path style=" stroke:none;fill-rule:evenodd;fill:#f4d0b8;fill-opacity:1;" d="M 285.078125 138.335938 C 221.363281 140.757812 157.53125 140.613281 93.550781 138.335938 C 93.550781 138.335938 93.351562 152.53125 93.351562 159.976562 C 93.351562 171.289062 93.351562 182.832031 93.351562 194.171875 C 93.351562 219.539062 103.421875 243.894531 121.371094 261.84375 C 139.320312 279.792969 163.675781 289.863281 189.042969 289.863281 C 241.910156 289.863281 284.761719 247.011719 284.761719 194.171875 C 284.761719 182.832031 284.761719 171.289062 284.761719 159.976562 C 284.761719 152.648438 285.078125 138.335938 285.078125 138.335938 "/></g><path style=" stroke:none;fill-rule:evenodd;fill:#aecad6;fill-opacity:1;" d="M 250.335938 205.746094 C 256.796875 205.746094 262.050781 210.996094 262.050781 217.460938 C 262.050781 223.925781 256.796875 229.175781 250.335938 229.175781 C 243.871094 229.175781 238.617188 223.925781 238.617188 217.460938 C 238.617188 210.996094 243.871094 205.746094 250.335938 205.746094 "/><path style=" stroke:none;fill-rule:evenodd;fill:#aecad6;fill-opacity:1;" d="M 132.308594 205.746094 C 138.773438 205.746094 144.023438 210.996094 144.023438 217.460938 C 144.023438 223.925781 138.773438 229.175781 132.308594 229.175781 C 125.84375 229.175781 120.59375 223.925781 120.59375 217.460938 C 120.59375 210.996094 125.84375 205.746094 132.308594 205.746094 "/><path style=" stroke:none;fill-rule:evenodd;fill:#b3e0c9;fill-opacity:1;" d="M 248.863281 167.796875 C 246.582031 166.902344 244.101562 166.46875 241.5625 166.09375 C 239.082031 165.71875 236.539062 165.691406 234.058594 165.664062 C 231.519531 165.664062 229.039062 165.664062 226.730469 166.066406 C 224.304688 166.46875 222.054688 166.933594 220.324219 168 C 218.9375 169.066406 216.714844 168.980469 215.300781 167.769531 C 213.917969 166.585938 213.886719 164.769531 215.246094 163.671875 C 218.042969 160.957031 222.402344 158.996094 227.480469 157.984375 C 229.382812 157.582031 231.375 157.378906 233.425781 157.378906 C 236.078125 157.378906 238.792969 157.699219 241.417969 158.304688 C 245.457031 159.226562 249.238281 160.726562 252.46875 162.746094 C 254.230469 163.671875 254.867188 165.519531 253.855469 166.933594 C 252.875 168.316406 250.625 168.691406 248.863281 167.796875 "/><path style=" stroke:none;fill-rule:evenodd;fill:#b3e0c9;fill-opacity:1;" d="M 191.0625 188.171875 C 189.503906 188.285156 184.65625 219.683594 186.269531 225.628906 C 187.050781 228.570312 195.160156 229.410156 195.707031 224.792969 C 196.371094 219.078125 192.648438 188.027344 191.0625 188.171875 "/><path style=" stroke:none;fill-rule:evenodd;fill:#b3e0c9;fill-opacity:1;" d="M 217.175781 188.632812 C 219.773438 190.882812 222.746094 192.613281 225.921875 193.652344 C 228.171875 194.375 230.507812 194.78125 232.875 194.78125 C 234.609375 194.808594 236.398438 194.578125 238.128906 194.144531 C 241.792969 193.222656 245.34375 191.402344 248.546875 188.574219 C 249.296875 187.96875 249.382812 186.929688 248.746094 186.207031 C 248.113281 185.515625 246.957031 185.429688 246.207031 186.007812 C 244.160156 187.449219 241.964844 188.402344 239.800781 189.09375 C 237.492188 189.785156 235.183594 190.046875 232.90625 190.019531 C 231.027344 189.988281 229.183594 189.816406 227.363281 189.355469 C 224.621094 188.691406 221.9375 187.59375 219.542969 185.949219 C 218.765625 185.34375 217.582031 185.457031 216.917969 186.179688 C 216.253906 186.929688 216.371094 188.027344 217.175781 188.632812 "/><path style=" stroke:none;fill-rule:evenodd;fill:#b3e0c9;fill-opacity:1;" d="M 167.832031 188.632812 C 165.207031 190.882812 162.234375 192.613281 159.058594 193.652344 C 156.835938 194.375 154.46875 194.78125 152.132812 194.78125 C 150.371094 194.808594 148.582031 194.578125 146.851562 194.144531 C 143.1875 193.222656 139.636719 191.402344 136.464844 188.574219 C 135.683594 187.96875 135.597656 186.929688 136.234375 186.207031 C 136.894531 185.515625 138.023438 185.429688 138.773438 186.007812 C 140.851562 187.449219 143.015625 188.402344 145.207031 189.09375 C 147.488281 189.785156 149.796875 190.046875 152.105469 190.019531 C 153.980469 189.988281 155.828125 189.816406 157.644531 189.355469 C 160.386719 188.691406 163.042969 187.59375 165.4375 185.949219 C 166.214844 185.34375 167.398438 185.457031 168.0625 186.179688 C 168.726562 186.929688 168.609375 188.027344 167.832031 188.632812 "/><path style=" stroke:none;fill-rule:evenodd;fill:#b3e0c9;fill-opacity:1;" d="M 164.023438 167.394531 C 161.859375 166.585938 159.40625 166.238281 156.894531 165.949219 C 154.441406 165.691406 151.929688 165.71875 149.449219 165.804688 C 146.882812 165.894531 144.398438 166.007812 142.0625 166.46875 C 139.578125 166.960938 137.269531 167.539062 135.425781 168.664062 C 133.953125 169.789062 131.703125 169.761719 130.433594 168.605469 C 129.164062 167.480469 129.308594 165.632812 130.777344 164.507812 C 133.867188 161.679688 138.398438 159.574219 143.589844 158.363281 C 145.523438 157.898438 147.574219 157.609375 149.59375 157.523438 C 152.277344 157.4375 154.960938 157.640625 157.53125 158.160156 C 161.484375 158.9375 165.117188 160.292969 168.148438 162.199219 C 169.851562 163.066406 170.285156 164.910156 169.128906 166.355469 C 168.003906 167.769531 165.726562 168.257812 164.023438 167.394531 "/><g style="fill:#aecad6;fill-opacity:1;"><g transform="translate(95.826993, 327.99997)"><path style="stroke:none" d="M 12.484375 0 C 11.734375 0 11.117188 -0.234375 10.640625 -0.703125 C 10.160156 -1.171875 9.921875 -1.75 9.921875 -2.4375 L 9.921875 -25.640625 L 15.125 -25.640625 L 15.125 -2.4375 C 15.125 -1.75 14.875 -1.171875 14.375 -0.703125 C 13.882812 -0.234375 13.253906 0 12.484375 0 Z M 3.640625 -23.40625 C 2.941406 -23.40625 2.359375 -23.617188 1.890625 -24.046875 C 1.429688 -24.472656 1.203125 -25.03125 1.203125 -25.71875 C 1.203125 -26.414062 1.429688 -26.96875 1.890625 -27.375 C 2.359375 -27.789062 2.941406 -28 3.640625 -28 L 21.40625 -28 C 22.09375 -28 22.671875 -27.785156 23.140625 -27.359375 C 23.609375 -26.929688 23.84375 -26.375 23.84375 -25.6875 C 23.84375 -24.988281 23.609375 -24.429688 23.140625 -24.015625 C 22.671875 -23.609375 22.09375 -23.40625 21.40625 -23.40625 Z M 3.640625 -23.40625 "/></g></g><g style="fill:#aecad6;fill-opacity:1;"><g transform="translate(120.864501, 327.99997)"><path style="stroke:none" d="M 12.6875 0.40625 C 10.414062 0.40625 8.445312 -0.0664062 6.78125 -1.015625 C 5.113281 -1.960938 3.832031 -3.25 2.9375 -4.875 C 2.039062 -6.5 1.59375 -8.34375 1.59375 -10.40625 C 1.59375 -12.800781 2.078125 -14.84375 3.046875 -16.53125 C 4.023438 -18.226562 5.300781 -19.53125 6.875 -20.4375 C 8.445312 -21.34375 10.113281 -21.796875 11.875 -21.796875 C 13.238281 -21.796875 14.523438 -21.515625 15.734375 -20.953125 C 16.953125 -20.398438 18.023438 -19.632812 18.953125 -18.65625 C 19.890625 -17.6875 20.628906 -16.5625 21.171875 -15.28125 C 21.722656 -14 22 -12.640625 22 -11.203125 C 21.96875 -10.554688 21.710938 -10.035156 21.234375 -9.640625 C 20.753906 -9.242188 20.195312 -9.046875 19.5625 -9.046875 L 4.28125 -9.046875 L 3.078125 -13.046875 L 17.765625 -13.046875 L 16.875 -12.234375 L 16.875 -13.3125 C 16.820312 -14.09375 16.546875 -14.785156 16.046875 -15.390625 C 15.554688 -16.003906 14.945312 -16.492188 14.21875 -16.859375 C 13.488281 -17.222656 12.707031 -17.40625 11.875 -17.40625 C 11.082031 -17.40625 10.335938 -17.296875 9.640625 -17.078125 C 8.941406 -16.867188 8.335938 -16.507812 7.828125 -16 C 7.328125 -15.488281 6.929688 -14.804688 6.640625 -13.953125 C 6.347656 -13.109375 6.203125 -12.03125 6.203125 -10.71875 C 6.203125 -9.28125 6.5 -8.0625 7.09375 -7.0625 C 7.695312 -6.0625 8.472656 -5.300781 9.421875 -4.78125 C 10.367188 -4.257812 11.375 -4 12.4375 -4 C 13.425781 -4 14.210938 -4.078125 14.796875 -4.234375 C 15.390625 -4.398438 15.863281 -4.59375 16.21875 -4.8125 C 16.582031 -5.039062 16.910156 -5.238281 17.203125 -5.40625 C 17.679688 -5.644531 18.132812 -5.765625 18.5625 -5.765625 C 19.144531 -5.765625 19.628906 -5.5625 20.015625 -5.15625 C 20.398438 -4.757812 20.59375 -4.296875 20.59375 -3.765625 C 20.59375 -3.046875 20.222656 -2.390625 19.484375 -1.796875 C 18.785156 -1.210938 17.8125 -0.695312 16.5625 -0.25 C 15.3125 0.1875 14.019531 0.40625 12.6875 0.40625 Z M 12.6875 0.40625 "/></g></g><g style="fill:#aecad6;fill-opacity:1;"><g transform="translate(144.46216, 327.99997)"><path style="stroke:none" d="M 5 0 C 4.300781 0 3.722656 -0.234375 3.265625 -0.703125 C 2.816406 -1.171875 2.59375 -1.75 2.59375 -2.4375 L 2.59375 -18.953125 C 2.59375 -19.648438 2.816406 -20.234375 3.265625 -20.703125 C 3.722656 -21.171875 4.300781 -21.40625 5 -21.40625 C 5.695312 -21.40625 6.269531 -21.171875 6.71875 -20.703125 C 7.175781 -20.234375 7.40625 -19.648438 7.40625 -18.953125 L 7.40625 -15.203125 L 7.125 -17.875 C 7.414062 -18.519531 7.789062 -19.085938 8.25 -19.578125 C 8.71875 -20.066406 9.242188 -20.476562 9.828125 -20.8125 C 10.421875 -21.144531 11.050781 -21.390625 11.71875 -21.546875 C 12.382812 -21.710938 13.050781 -21.796875 13.71875 -21.796875 C 14.519531 -21.796875 15.191406 -21.566406 15.734375 -21.109375 C 16.285156 -20.660156 16.5625 -20.128906 16.5625 -19.515625 C 16.5625 -18.640625 16.332031 -18.007812 15.875 -17.625 C 15.425781 -17.238281 14.9375 -17.046875 14.40625 -17.046875 C 13.894531 -17.046875 13.429688 -17.132812 13.015625 -17.3125 C 12.609375 -17.5 12.132812 -17.59375 11.59375 -17.59375 C 11.113281 -17.59375 10.628906 -17.476562 10.140625 -17.25 C 9.648438 -17.03125 9.195312 -16.679688 8.78125 -16.203125 C 8.363281 -15.722656 8.03125 -15.128906 7.78125 -14.421875 C 7.53125 -13.710938 7.40625 -12.878906 7.40625 -11.921875 L 7.40625 -2.4375 C 7.40625 -1.75 7.175781 -1.171875 6.71875 -0.703125 C 6.269531 -0.234375 5.695312 0 5 0 Z M 5 0 "/></g></g><g style="fill:#aecad6;fill-opacity:1;"><g transform="translate(161.820431, 327.99997)"><path style="stroke:none" d="M 20.125 -21.796875 C 20.8125 -21.796875 21.378906 -21.566406 21.828125 -21.109375 C 22.285156 -20.660156 22.515625 -20.078125 22.515625 -19.359375 L 22.515625 -2.4375 C 22.515625 -1.75 22.285156 -1.171875 21.828125 -0.703125 C 21.378906 -0.234375 20.8125 0 20.125 0 C 19.425781 0 18.847656 -0.234375 18.390625 -0.703125 C 17.941406 -1.171875 17.71875 -1.75 17.71875 -2.4375 L 17.71875 -4.40625 L 18.59375 -4.046875 C 18.59375 -3.691406 18.40625 -3.269531 18.03125 -2.78125 C 17.664062 -2.289062 17.160156 -1.800781 16.515625 -1.3125 C 15.878906 -0.832031 15.125 -0.425781 14.25 -0.09375 C 13.382812 0.238281 12.445312 0.40625 11.4375 0.40625 C 9.601562 0.40625 7.9375 -0.0664062 6.4375 -1.015625 C 4.945312 -1.960938 3.765625 -3.269531 2.890625 -4.9375 C 2.023438 -6.601562 1.59375 -8.519531 1.59375 -10.6875 C 1.59375 -12.863281 2.023438 -14.785156 2.890625 -16.453125 C 3.765625 -18.117188 4.929688 -19.425781 6.390625 -20.375 C 7.859375 -21.320312 9.488281 -21.796875 11.28125 -21.796875 C 12.425781 -21.796875 13.476562 -21.625 14.4375 -21.28125 C 15.394531 -20.9375 16.226562 -20.492188 16.9375 -19.953125 C 17.644531 -19.421875 18.191406 -18.878906 18.578125 -18.328125 C 18.960938 -17.785156 19.15625 -17.328125 19.15625 -16.953125 L 17.71875 -16.4375 L 17.71875 -19.359375 C 17.71875 -20.054688 17.941406 -20.632812 18.390625 -21.09375 C 18.847656 -21.5625 19.425781 -21.796875 20.125 -21.796875 Z M 12.046875 -4 C 13.210938 -4 14.234375 -4.289062 15.109375 -4.875 C 15.992188 -5.46875 16.679688 -6.269531 17.171875 -7.28125 C 17.671875 -8.289062 17.921875 -9.425781 17.921875 -10.6875 C 17.921875 -11.957031 17.671875 -13.097656 17.171875 -14.109375 C 16.679688 -15.128906 15.992188 -15.929688 15.109375 -16.515625 C 14.234375 -17.109375 13.210938 -17.40625 12.046875 -17.40625 C 10.890625 -17.40625 9.875 -17.109375 9 -16.515625 C 8.125 -15.929688 7.4375 -15.128906 6.9375 -14.109375 C 6.445312 -13.097656 6.203125 -11.957031 6.203125 -10.6875 C 6.203125 -9.425781 6.445312 -8.289062 6.9375 -7.28125 C 7.4375 -6.269531 8.125 -5.46875 9 -4.875 C 9.875 -4.289062 10.890625 -4 12.046875 -4 Z M 12.046875 -4 "/></g></g><g style="fill:#b3e0c9;fill-opacity:1;"><g transform="translate(187.582023, 327.99997)"><path style="stroke:none" d="M 18.4375 -4.6875 C 19.132812 -4.6875 19.710938 -4.460938 20.171875 -4.015625 C 20.640625 -3.578125 20.875 -3.007812 20.875 -2.3125 C 20.875 -1.644531 20.640625 -1.09375 20.171875 -0.65625 C 19.710938 -0.21875 19.132812 0 18.4375 0 L 5.4375 0 C 4.75 0 4.171875 -0.234375 3.703125 -0.703125 C 3.234375 -1.171875 3 -1.75 3 -2.4375 L 3 -25.5625 C 3 -26.25 3.238281 -26.828125 3.71875 -27.296875 C 4.195312 -27.765625 4.8125 -28 5.5625 -28 C 6.195312 -28 6.757812 -27.765625 7.25 -27.296875 C 7.75 -26.828125 8 -26.25 8 -25.5625 L 8 -4 L 7.125 -4.6875 Z M 18.4375 -4.6875 "/></g></g><g style="fill:#b3e0c9;fill-opacity:1;"><g transform="translate(210.059786, 327.99997)"><path style="stroke:none" d="M 7.125 -2.4375 C 7.125 -1.75 6.894531 -1.171875 6.4375 -0.703125 C 5.988281 -0.234375 5.414062 0 4.71875 0 C 4.03125 0 3.457031 -0.234375 3 -0.703125 C 2.539062 -1.171875 2.3125 -1.75 2.3125 -2.4375 L 2.3125 -18.953125 C 2.3125 -19.648438 2.539062 -20.234375 3 -20.703125 C 3.457031 -21.171875 4.03125 -21.40625 4.71875 -21.40625 C 5.414062 -21.40625 5.988281 -21.171875 6.4375 -20.703125 C 6.894531 -20.234375 7.125 -19.648438 7.125 -18.953125 Z M 4.6875 -24 C 3.78125 -24 3.140625 -24.144531 2.765625 -24.4375 C 2.390625 -24.726562 2.203125 -25.25 2.203125 -26 L 2.203125 -26.765625 C 2.203125 -27.535156 2.40625 -28.0625 2.8125 -28.34375 C 3.226562 -28.625 3.863281 -28.765625 4.71875 -28.765625 C 5.65625 -28.765625 6.3125 -28.613281 6.6875 -28.3125 C 7.0625 -28.019531 7.25 -27.503906 7.25 -26.765625 L 7.25 -26 C 7.25 -25.226562 7.046875 -24.703125 6.640625 -24.421875 C 6.242188 -24.140625 5.59375 -24 4.6875 -24 Z M 4.6875 -24 "/></g></g><g style="fill:#b3e0c9;fill-opacity:1;"><g transform="translate(219.498849, 327.99997)"><path style="stroke:none" d="M 14.046875 -21.796875 C 16.015625 -21.796875 17.507812 -21.378906 18.53125 -20.546875 C 19.5625 -19.722656 20.269531 -18.625 20.65625 -17.25 C 21.039062 -15.882812 21.234375 -14.363281 21.234375 -12.6875 L 21.234375 -2.4375 C 21.234375 -1.75 21.003906 -1.171875 20.546875 -0.703125 C 20.097656 -0.234375 19.53125 0 18.84375 0 C 18.144531 0 17.566406 -0.234375 17.109375 -0.703125 C 16.660156 -1.171875 16.4375 -1.75 16.4375 -2.4375 L 16.4375 -12.6875 C 16.4375 -13.5625 16.320312 -14.351562 16.09375 -15.0625 C 15.875 -15.769531 15.46875 -16.335938 14.875 -16.765625 C 14.289062 -17.191406 13.453125 -17.40625 12.359375 -17.40625 C 11.296875 -17.40625 10.394531 -17.191406 9.65625 -16.765625 C 8.925781 -16.335938 8.367188 -15.769531 7.984375 -15.0625 C 7.597656 -14.351562 7.40625 -13.5625 7.40625 -12.6875 L 7.40625 -2.4375 C 7.40625 -1.75 7.175781 -1.171875 6.71875 -0.703125 C 6.269531 -0.234375 5.695312 0 5 0 C 4.300781 0 3.722656 -0.234375 3.265625 -0.703125 C 2.816406 -1.171875 2.59375 -1.75 2.59375 -2.4375 L 2.59375 -18.953125 C 2.59375 -19.648438 2.816406 -20.234375 3.265625 -20.703125 C 3.722656 -21.171875 4.300781 -21.40625 5 -21.40625 C 5.695312 -21.40625 6.269531 -21.171875 6.71875 -20.703125 C 7.175781 -20.234375 7.40625 -19.648438 7.40625 -18.953125 L 7.40625 -17.234375 L 6.796875 -17.359375 C 7.035156 -17.816406 7.378906 -18.300781 7.828125 -18.8125 C 8.285156 -19.332031 8.820312 -19.816406 9.4375 -20.265625 C 10.050781 -20.722656 10.742188 -21.09375 11.515625 -21.375 C 12.296875 -21.65625 13.140625 -21.796875 14.046875 -21.796875 Z M 14.046875 -21.796875 "/></g></g><g style="fill:#b3e0c9;fill-opacity:1;"><g transform="translate(243.336479, 327.99997)"><path style="stroke:none" d="M 5.40625 0 C 4.707031 0 4.128906 -0.234375 3.671875 -0.703125 C 3.222656 -1.171875 3 -1.75 3 -2.4375 L 3 -27.15625 C 3 -27.851562 3.222656 -28.429688 3.671875 -28.890625 C 4.128906 -29.359375 4.707031 -29.59375 5.40625 -29.59375 C 6.09375 -29.59375 6.660156 -29.359375 7.109375 -28.890625 C 7.566406 -28.429688 7.796875 -27.851562 7.796875 -27.15625 L 7.796875 -2.4375 C 7.796875 -1.75 7.566406 -1.171875 7.109375 -0.703125 C 6.660156 -0.234375 6.09375 0 5.40625 0 Z M 18.125 -21.40625 C 18.738281 -21.40625 19.269531 -21.148438 19.71875 -20.640625 C 20.175781 -20.128906 20.40625 -19.632812 20.40625 -19.15625 C 20.40625 -18.519531 20.082031 -17.921875 19.4375 -17.359375 L 7.40625 -6.28125 L 7.203125 -11.796875 L 16.359375 -20.640625 C 16.867188 -21.148438 17.457031 -21.40625 18.125 -21.40625 Z M 18.71875 -0.046875 C 18.03125 -0.046875 17.441406 -0.3125 16.953125 -0.84375 L 9.5625 -8.6875 L 13.203125 -12.046875 L 20.40625 -4.203125 C 20.90625 -3.671875 21.15625 -3.070312 21.15625 -2.40625 C 21.15625 -1.707031 20.878906 -1.140625 20.328125 -0.703125 C 19.785156 -0.265625 19.25 -0.046875 18.71875 -0.046875 Z M 18.71875 -0.046875 "/></g></g></g></svg>